G04*
G04 #@! TF.GenerationSoftware,Altium Limited,Altium Designer,20.2.5 (213)*
G04*
G04 Layer_Physical_Order=1*
G04 Layer_Color=255*
%FSLAX25Y25*%
%MOIN*%
G70*
G04*
G04 #@! TF.SameCoordinates,4BDDF83D-22BF-46A4-B0D9-F4370223F083*
G04*
G04*
G04 #@! TF.FilePolarity,Positive*
G04*
G01*
G75*
%ADD16R,0.10236X0.04724*%
%ADD27C,0.01500*%
%ADD28C,0.02000*%
%ADD29R,0.05906X0.05906*%
%ADD30C,0.05906*%
%ADD31C,0.04724*%
%ADD32R,0.05512X0.03937*%
%ADD33C,0.07795*%
%ADD34R,0.07795X0.07795*%
%ADD35R,0.01850X0.02520*%
%ADD36C,0.06008*%
%ADD37R,0.05906X0.05906*%
D16*
X673023Y432839D02*
D03*
Y450161D02*
D03*
X672523Y398339D02*
D03*
Y415661D02*
D03*
X594023Y441339D02*
D03*
Y458661D02*
D03*
D27*
X654023Y437843D02*
Y454500D01*
X672523Y398339D02*
X669767D01*
X661089Y407017D02*
Y430777D01*
X669767Y398339D02*
X661089Y407017D01*
Y430777D02*
X654023Y437843D01*
X651434Y461291D02*
X649226Y459083D01*
X659372Y459531D02*
X657613Y461291D01*
X651434D01*
X622023Y459500D02*
X595940D01*
X610497Y444944D02*
X595940Y459500D01*
X646922Y444944D02*
X610497D01*
X649226Y447248D02*
X646922Y444944D01*
X630348Y407646D02*
X598391Y439602D01*
Y439726D02*
X596779Y441339D01*
X633523Y407646D02*
X630348D01*
X598391Y439602D02*
Y439726D01*
X583157Y437587D02*
Y463413D01*
X665655Y432839D02*
X659372Y439121D01*
Y459531D01*
X649226Y447248D02*
Y459083D01*
X673023Y432839D02*
X665655D01*
X595940Y459500D02*
X594862D01*
X594023Y458661D01*
X596779Y441339D02*
X594023D01*
X628243Y454500D02*
X627023D01*
X633523Y387882D02*
X618208D01*
X614395Y384069D01*
X633523Y397764D02*
X626566D01*
X602989Y421341D01*
X600190D01*
X583944Y437587D01*
X614395Y384069D02*
X585876D01*
X583944Y386000D01*
X633523Y318709D02*
X618208D01*
X614395Y314896D01*
X598049D01*
X583944Y329000D01*
X583157D01*
X633523Y308827D02*
X606802D01*
X602704Y304729D01*
X589260D01*
X583944Y299413D01*
X583157D01*
Y386000D02*
Y411827D01*
X583944Y386000D02*
X583157D01*
X583944Y437587D02*
X583157D01*
D28*
X646983Y381763D02*
X633598Y368378D01*
X679641Y395148D02*
X666256Y381763D01*
X679641Y395148D02*
Y401529D01*
X672523Y408647D01*
X666256Y381763D02*
X646983D01*
X672523Y408647D02*
Y415661D01*
X658752Y464041D02*
X645560D01*
X662122Y460670D02*
X658752Y464041D01*
X645560D02*
X631015Y449496D01*
X646129Y371028D02*
X633523Y358421D01*
X653523Y402555D02*
Y403000D01*
X654023Y371028D02*
X646129D01*
X633523Y358236D02*
Y358421D01*
X673023Y450161D02*
X664905D01*
X662122Y452944D01*
Y460670D01*
X631015Y449496D02*
X622027D01*
X617023Y454500D01*
X619523Y278500D02*
X570590D01*
X633523Y358236D02*
X607156D01*
X649232Y301039D02*
X626692Y278500D01*
X599151Y352417D02*
X597091Y350358D01*
X579366D02*
X574897Y354827D01*
X597091Y350358D02*
X579366D01*
X650523Y311079D02*
Y337417D01*
X654023Y340917D02*
X650523Y337417D01*
X654023Y340917D02*
Y341500D01*
X626692Y278500D02*
X619523D01*
X650523Y301039D02*
X649232D01*
X628023Y268500D02*
X619523D01*
X650523Y291000D02*
X628023Y268500D01*
X607156Y358236D02*
X601337Y352417D01*
X599151D01*
X574897Y354827D02*
X564889D01*
Y437587D02*
Y463413D01*
Y386000D02*
Y437587D01*
Y354827D02*
Y386000D01*
Y329000D02*
Y354827D01*
Y273587D02*
Y329000D01*
X570590Y278500D02*
X565677Y273587D01*
X564889D01*
D29*
X619523Y268500D02*
D03*
D30*
Y278500D02*
D03*
X644023Y454500D02*
D03*
D31*
X653523Y432528D02*
D03*
Y403000D02*
D03*
X654023Y371028D02*
D03*
Y341500D02*
D03*
D32*
X564889Y437587D02*
D03*
X583157D02*
D03*
Y463413D02*
D03*
X564889D02*
D03*
Y386000D02*
D03*
X583157D02*
D03*
Y411827D02*
D03*
X564889D02*
D03*
Y329000D02*
D03*
X583157D02*
D03*
Y354827D02*
D03*
X564889D02*
D03*
Y273587D02*
D03*
X583157D02*
D03*
Y299413D02*
D03*
X564889D02*
D03*
D33*
X650523Y311079D02*
D03*
Y301039D02*
D03*
D34*
Y291000D02*
D03*
D35*
X601122Y298945D02*
D03*
Y308827D02*
D03*
Y318709D02*
D03*
Y328591D02*
D03*
Y427410D02*
D03*
Y417528D02*
D03*
Y407646D02*
D03*
Y397764D02*
D03*
Y338472D02*
D03*
Y348354D02*
D03*
Y358236D02*
D03*
Y368118D02*
D03*
Y378000D02*
D03*
Y387882D02*
D03*
X633523Y298945D02*
D03*
Y308827D02*
D03*
Y318709D02*
D03*
Y328591D02*
D03*
Y427410D02*
D03*
Y417528D02*
D03*
Y407646D02*
D03*
Y387882D02*
D03*
Y348354D02*
D03*
Y338472D02*
D03*
Y358236D02*
D03*
Y368118D02*
D03*
Y397764D02*
D03*
Y378000D02*
D03*
D36*
X627023Y454500D02*
D03*
X622023Y459500D02*
D03*
X617023Y454500D02*
D03*
D37*
X654023D02*
D03*
M02*
