G04*
G04 #@! TF.GenerationSoftware,Altium Limited,Altium Designer,20.2.5 (213)*
G04*
G04 Layer_Color=16711935*
%FSLAX25Y25*%
%MOIN*%
G70*
G04*
G04 #@! TF.SameCoordinates,4BDDF83D-22BF-46A4-B0D9-F4370223F083*
G04*
G04*
G04 #@! TF.FilePolarity,Positive*
G04*
G01*
G75*
%ADD11C,0.00787*%
%ADD12C,0.00394*%
D11*
X661397Y398079D02*
X645649D01*
Y437449D01*
X661397D02*
X645649D01*
X661397Y398079D02*
Y437449D01*
X661897Y336579D02*
X646149D01*
Y375949D01*
X661897D02*
X646149D01*
X661897Y336579D02*
Y375949D01*
X631078Y448201D02*
X612968D01*
Y462374D01*
X631078D02*
X612968D01*
X631078Y448201D02*
Y462374D01*
D12*
X678240Y431362D02*
X667807D01*
X678240Y451638D02*
X667807D01*
X678240Y431362D02*
Y451638D01*
X667807Y431362D02*
Y451638D01*
X677740Y396862D02*
X667307D01*
X677740Y417138D02*
X667307D01*
X677740Y396862D02*
Y417138D01*
X667307Y396862D02*
Y417138D01*
X599240Y439862D02*
X588807D01*
X599240Y460138D02*
X588807D01*
X599240Y439862D02*
Y460138D01*
X588807Y439862D02*
Y460138D01*
X662610Y285587D02*
X657590Y280567D01*
X662610D02*
X644499D01*
Y321512D01*
X662610D02*
X644499D01*
X662610Y280567D02*
Y321512D01*
M02*
