G04*
G04 #@! TF.GenerationSoftware,Altium Limited,Altium Designer,20.2.5 (213)*
G04*
G04 Layer_Color=32896*
%FSLAX25Y25*%
%MOIN*%
G70*
G04*
G04 #@! TF.SameCoordinates,4BDDF83D-22BF-46A4-B0D9-F4370223F083*
G04*
G04*
G04 #@! TF.FilePolarity,Positive*
G04*
G01*
G75*
%ADD12C,0.00394*%
%ADD13C,0.00197*%
%ADD14C,0.00591*%
D12*
X575204Y450500D02*
X572940D01*
X574023Y449319D02*
Y451583D01*
X575204Y398913D02*
X572940D01*
X574023Y397732D02*
Y399996D01*
X575204Y341913D02*
X572940D01*
X574023Y340732D02*
Y342996D01*
X575204Y286500D02*
X572940D01*
X574023Y285319D02*
Y287583D01*
D13*
X587803Y434358D02*
X560244D01*
X562499Y435835D02*
X562409Y435924D01*
X560244Y434358D02*
Y466642D01*
X587803D02*
X560244D01*
X587803Y434358D02*
Y466642D01*
Y382772D02*
X560244D01*
X562499Y384248D02*
X562409Y384338D01*
X560244Y382772D02*
Y415055D01*
X587803D02*
X560244D01*
X587803Y382772D02*
Y415055D01*
X637007Y294280D02*
Y432075D01*
Y294280D02*
X597637D01*
Y432075D01*
X637007D02*
X597637D01*
X587803Y325772D02*
X560244D01*
X562499Y327248D02*
X562409Y327338D01*
X560244Y325772D02*
Y358055D01*
X587803D02*
X560244D01*
X587803Y325772D02*
Y358055D01*
Y270358D02*
X560244D01*
X562499Y271835D02*
X562409Y271924D01*
X560244Y270358D02*
Y302642D01*
X587803D02*
X560244D01*
X587803Y270358D02*
Y302642D01*
D14*
X621653Y363177D02*
X612204D01*
X617322Y358846D02*
Y369476D01*
M02*
