G04*
G04 #@! TF.GenerationSoftware,Altium Limited,Altium Designer,20.2.5 (213)*
G04*
G04 Layer_Physical_Order=2*
G04 Layer_Color=16711680*
%FSLAX25Y25*%
%MOIN*%
G70*
G04*
G04 #@! TF.SameCoordinates,4BDDF83D-22BF-46A4-B0D9-F4370223F083*
G04*
G04*
G04 #@! TF.FilePolarity,Positive*
G04*
G01*
G75*
%ADD27C,0.01500*%
%ADD28C,0.02000*%
%ADD29R,0.05906X0.05906*%
%ADD30C,0.05906*%
%ADD31C,0.04724*%
%ADD32R,0.05512X0.03937*%
%ADD33C,0.07795*%
%ADD34R,0.07795X0.07795*%
%ADD35R,0.01850X0.02520*%
%ADD36C,0.06008*%
%ADD37R,0.05906X0.05906*%
D27*
X583157Y273587D02*
Y299413D01*
X644523Y456000D02*
X643773Y455250D01*
X627773D01*
X627023Y454500D01*
X583157Y329000D02*
Y354827D01*
D28*
X653773Y402750D02*
X653523Y403000D01*
X653773Y371278D02*
Y402750D01*
X654023Y371028D02*
X653773Y371278D01*
X653523Y418819D02*
X648661Y413957D01*
X653523Y418819D02*
Y432528D01*
X575035Y386000D02*
X564889D01*
X592917Y368118D02*
X575035Y386000D01*
X601122Y368118D02*
X592917D01*
X656921Y331726D02*
X648661Y339986D01*
Y413957D01*
X633523Y363858D02*
X631964Y362299D01*
X629795Y336167D02*
Y360542D01*
X633523Y363858D02*
Y365988D01*
X631552Y362299D02*
X629795Y360542D01*
X615889Y348354D02*
X601122D01*
X631964Y362299D02*
X631552D01*
X633523Y365988D02*
X615889Y348354D01*
X633308Y332653D02*
X629795Y336167D01*
X617023Y454500D02*
X574590D01*
X565677Y463413D01*
X564889D01*
X642454Y325693D02*
X635494Y332653D01*
X642454Y319148D02*
Y325693D01*
X650523Y311079D02*
X642454Y319148D01*
X635494Y332653D02*
X633308D01*
X656921Y297398D02*
Y331726D01*
Y297398D02*
X650523Y291000D01*
Y301039D02*
X649232D01*
D29*
X619523Y268500D02*
D03*
D30*
Y278500D02*
D03*
X644023Y454500D02*
D03*
D31*
X653523Y432528D02*
D03*
Y403000D02*
D03*
X654023Y371028D02*
D03*
Y341500D02*
D03*
D32*
X564889Y437587D02*
D03*
X583157D02*
D03*
Y463413D02*
D03*
X564889D02*
D03*
Y386000D02*
D03*
X583157D02*
D03*
Y411827D02*
D03*
X564889D02*
D03*
Y329000D02*
D03*
X583157D02*
D03*
Y354827D02*
D03*
X564889D02*
D03*
Y273587D02*
D03*
X583157D02*
D03*
Y299413D02*
D03*
X564889D02*
D03*
D33*
X650523Y311079D02*
D03*
Y301039D02*
D03*
D34*
Y291000D02*
D03*
D35*
X601122Y298945D02*
D03*
Y308827D02*
D03*
Y318709D02*
D03*
Y328591D02*
D03*
Y427410D02*
D03*
Y417528D02*
D03*
Y407646D02*
D03*
Y397764D02*
D03*
Y338472D02*
D03*
Y348354D02*
D03*
Y358236D02*
D03*
Y368118D02*
D03*
Y378000D02*
D03*
Y387882D02*
D03*
X633523Y298945D02*
D03*
Y308827D02*
D03*
Y318709D02*
D03*
Y328591D02*
D03*
Y427410D02*
D03*
Y417528D02*
D03*
Y407646D02*
D03*
Y387882D02*
D03*
Y348354D02*
D03*
Y338472D02*
D03*
Y358236D02*
D03*
Y368118D02*
D03*
Y397764D02*
D03*
Y378000D02*
D03*
D36*
X627023Y454500D02*
D03*
X622023Y459500D02*
D03*
X617023Y454500D02*
D03*
D37*
X654023D02*
D03*
M02*
