G04*
G04 #@! TF.GenerationSoftware,Altium Limited,Altium Designer,20.2.5 (213)*
G04*
G04 Layer_Color=32768*
%FSLAX25Y25*%
%MOIN*%
G70*
G04*
G04 #@! TF.SameCoordinates,4BDDF83D-22BF-46A4-B0D9-F4370223F083*
G04*
G04*
G04 #@! TF.FilePolarity,Positive*
G04*
G01*
G75*
%ADD12C,0.00394*%
%ADD13C,0.00197*%
D12*
X665334Y394142D02*
X641712D01*
Y441386D01*
X665334D02*
X641712D01*
X665334Y394142D02*
Y441386D01*
X678535Y430083D02*
X667511D01*
X678535Y452917D02*
X667511D01*
X678535Y430083D02*
Y452917D01*
X667511Y430083D02*
Y452917D01*
X673023Y439532D02*
Y443469D01*
X674992Y441500D02*
X671055D01*
X678035Y395583D02*
X667011D01*
X678035Y418417D02*
X667011D01*
X678035Y395583D02*
Y418417D01*
X667011Y395583D02*
Y418417D01*
X672523Y405031D02*
Y408968D01*
X674492Y407000D02*
X670555D01*
X599535Y438583D02*
X588511D01*
X599535Y461417D02*
X588511D01*
X599535Y438583D02*
Y461417D01*
X588511Y438583D02*
Y461417D01*
X594023Y448032D02*
Y451968D01*
X595992Y450000D02*
X592055D01*
X665834Y332642D02*
X642212D01*
Y379886D01*
X665834D02*
X642212D01*
X665834Y332642D02*
Y379886D01*
X638755Y466441D02*
X609031D01*
Y444264D02*
Y466441D01*
X638755Y444264D02*
X609031D01*
X638755D02*
Y466441D01*
D13*
X663594Y279583D02*
X643515D01*
Y322496D01*
X663594D02*
X643515D01*
X663594Y279583D02*
Y322496D01*
M02*
