G04*
G04 #@! TF.GenerationSoftware,Altium Limited,Altium Designer,20.2.5 (213)*
G04*
G04 Layer_Color=65535*
%FSLAX25Y25*%
%MOIN*%
G70*
G04*
G04 #@! TF.SameCoordinates,4BDDF83D-22BF-46A4-B0D9-F4370223F083*
G04*
G04*
G04 #@! TF.FilePolarity,Positive*
G04*
G01*
G75*
%ADD10C,0.00984*%
%ADD11C,0.00787*%
%ADD12C,0.00394*%
%ADD13C,0.00197*%
%ADD14C,0.00591*%
%ADD15C,0.01000*%
D10*
X630610Y436406D02*
G03*
X630610Y436406I492J0D01*
G01*
X653531Y462571D02*
G03*
X653531Y462571I492J0D01*
G01*
D11*
X634622Y454500D02*
G03*
X634622Y454106I0J-197D01*
G01*
D02*
G03*
X634622Y454500I0J197D01*
G01*
D02*
G03*
X634622Y454106I0J-197D01*
G01*
X624523Y283500D02*
X614523D01*
Y263500D02*
Y283500D01*
X624523Y263500D02*
X614523D01*
X624523D02*
Y283500D01*
X677748Y436776D02*
Y446224D01*
X668299Y436776D02*
Y446224D01*
X677248Y402276D02*
Y411724D01*
X667799Y402276D02*
Y411724D01*
X598748Y445276D02*
Y454724D01*
X589299Y445276D02*
Y454724D01*
X662610Y280567D02*
X650523D01*
X662610D02*
Y321512D01*
X644499D01*
X659535Y448988D02*
X638511D01*
X659535Y460012D02*
X638511D01*
Y448988D02*
Y460012D01*
X659535Y448988D02*
Y460012D01*
D12*
X661397Y398079D02*
X645649D01*
Y437449D01*
X661397D02*
X645649D01*
X661397Y398079D02*
Y437449D01*
X661897Y336579D02*
X646149D01*
Y375949D01*
X661897D02*
X646149D01*
X661897Y336579D02*
Y375949D01*
X631078Y448201D02*
X612968D01*
X631078D02*
X612968D01*
D13*
X583157Y459555D02*
X564889D01*
X583157Y441445D02*
Y459555D01*
Y441445D02*
X564889D01*
Y459555D01*
X583157Y407969D02*
X564889D01*
X583157Y389858D02*
Y407969D01*
Y389858D02*
X564889D01*
Y407969D01*
X583157Y350969D02*
X564889D01*
X583157Y332858D02*
Y350969D01*
Y332858D02*
X564889D01*
Y350969D01*
X583157Y295555D02*
X564889D01*
X583157Y277445D02*
Y295555D01*
Y277445D02*
X564889D01*
Y295555D01*
D14*
X633182Y294673D02*
Y295461D01*
Y293098D02*
Y294673D01*
Y293098D02*
X601686D01*
Y295461D01*
X601574Y430500D02*
Y431287D01*
Y432862D01*
X633070D02*
X601574D01*
X633070Y430500D02*
Y432862D01*
X619286Y258000D02*
Y261017D01*
X620795Y259509D02*
X617777D01*
D15*
X677273Y421650D02*
Y427648D01*
X674274D01*
X673274Y426648D01*
Y424649D01*
X674274Y423649D01*
X677273D01*
X675274D02*
X673274Y421650D01*
X671275Y426648D02*
X670275Y427648D01*
X668276D01*
X667276Y426648D01*
Y425649D01*
X668276Y424649D01*
X669276D01*
X668276D01*
X667276Y423649D01*
Y422650D01*
X668276Y421650D01*
X670275D01*
X671275Y422650D01*
X677022Y456501D02*
Y462499D01*
X674022D01*
X673023Y461499D01*
Y459500D01*
X674022Y458500D01*
X677022D01*
X675022D02*
X673023Y456501D01*
X667025D02*
X671024D01*
X667025Y460500D01*
Y461499D01*
X668024Y462499D01*
X670024D01*
X671024Y461499D01*
X598773Y464650D02*
Y470648D01*
X595774D01*
X594774Y469648D01*
Y467649D01*
X595774Y466649D01*
X598773D01*
X596774D02*
X594774Y464650D01*
X592775D02*
X590776D01*
X591775D01*
Y470648D01*
X592775Y469648D01*
X636072Y446425D02*
Y441427D01*
X635073Y440427D01*
X633073D01*
X632074Y441427D01*
Y446425D01*
X630074Y445426D02*
X629075Y446425D01*
X627075D01*
X626076Y445426D01*
Y444426D01*
X628075Y442426D01*
Y441427D02*
Y440427D01*
X586873Y420163D02*
X583874D01*
X582874Y421163D01*
X583874Y422163D01*
X585874D01*
X586873Y423162D01*
X585874Y424162D01*
X582874D01*
X579875Y425162D02*
Y424162D01*
X580875D01*
X578876D01*
X579875D01*
Y421163D01*
X578876Y420163D01*
X574877D02*
X572878D01*
X571878Y421163D01*
Y423162D01*
X572878Y424162D01*
X574877D01*
X575877Y423162D01*
Y421163D01*
X574877Y420163D01*
X569879Y418164D02*
Y424162D01*
X566880D01*
X565880Y423162D01*
Y421163D01*
X566880Y420163D01*
X569879D01*
X563881Y425162D02*
X562881Y426161D01*
X560882D01*
X559882Y425162D01*
Y424162D01*
X561881Y422163D01*
Y421163D02*
Y420163D01*
X633974Y470650D02*
Y474648D01*
X634974Y475648D01*
X636973D01*
X637973Y474648D01*
Y470650D01*
X636973Y469650D01*
X634974D01*
X635974Y471649D02*
X633974Y469650D01*
X634974D02*
X633974Y470650D01*
X631975Y474648D02*
X630975Y475648D01*
X628976D01*
X627976Y474648D01*
Y473649D01*
X629976Y471649D01*
Y470650D02*
Y469650D01*
X586873Y305751D02*
Y311749D01*
X583874D01*
X582874Y310749D01*
Y308750D01*
X583874Y307750D01*
X586873D01*
X580875Y311749D02*
Y307750D01*
Y309749D01*
X579875Y310749D01*
X578876Y311749D01*
X577876D01*
X571878Y307750D02*
X573877D01*
X574877Y308750D01*
Y310749D01*
X573877Y311749D01*
X571878D01*
X570878Y310749D01*
Y309749D01*
X574877D01*
X568879Y312748D02*
X567879Y313748D01*
X565880D01*
X564880Y312748D01*
Y311749D01*
X566880Y309749D01*
Y308750D02*
Y307750D01*
X586873Y469751D02*
Y475749D01*
X583874D01*
X582874Y474749D01*
Y472750D01*
X583874Y471750D01*
X586873D01*
X580875D02*
X578876D01*
X579875D01*
Y477748D01*
X580875D01*
X574877Y475749D02*
X572878D01*
X571878Y474749D01*
Y471750D01*
X574877D01*
X575877Y472750D01*
X574877Y473749D01*
X571878D01*
X569879Y475749D02*
Y472750D01*
X568879Y471750D01*
X565880D01*
Y470750D01*
X566880Y469751D01*
X567879D01*
X565880Y471750D02*
Y475749D01*
X563881Y476748D02*
X562881Y477748D01*
X560882D01*
X559882Y476748D01*
Y475749D01*
X561881Y473749D01*
Y472750D02*
Y471750D01*
X586873Y361163D02*
Y365162D01*
X583874D01*
X582874Y364162D01*
Y361163D01*
X577876D02*
X579875D01*
X580875Y362163D01*
Y364162D01*
X579875Y365162D01*
X577876D01*
X576876Y364162D01*
Y363163D01*
X580875D01*
X574877Y365162D02*
X570878Y361163D01*
X572878Y363163D01*
X570878Y365162D01*
X574877Y361163D01*
X567879Y366162D02*
Y365162D01*
X568879D01*
X566880D01*
X567879D01*
Y362163D01*
X566880Y361163D01*
X563881Y366162D02*
X562881Y367161D01*
X560882D01*
X559882Y366162D01*
Y365162D01*
X561881Y363163D01*
Y362163D02*
Y361163D01*
X662673Y331548D02*
X660674D01*
X661673D01*
Y325550D01*
X662673D01*
X660674D01*
X653676Y330548D02*
X654676Y331548D01*
X656675D01*
X657675Y330548D01*
Y326550D01*
X656675Y325550D01*
X654676D01*
X653676Y326550D01*
X651677Y330548D02*
X650677Y331548D01*
X648678D01*
X647678Y330548D01*
Y329549D01*
X649677Y327549D01*
Y326550D02*
Y325550D01*
X661074Y388048D02*
X662074Y389048D01*
X664074D01*
X665073Y388048D01*
Y384050D01*
X664074Y383050D01*
X662074D01*
X661074Y384050D01*
X655076Y383050D02*
X659075D01*
X655076Y387049D01*
Y388048D01*
X656076Y389048D01*
X658075D01*
X659075Y388048D01*
X659523Y445499D02*
X660523Y446499D01*
X662522D01*
X663522Y445499D01*
Y441501D01*
X662522Y440501D01*
X660523D01*
X659523Y441501D01*
X657524Y440501D02*
X655524D01*
X656524D01*
Y446499D01*
X657524Y445499D01*
X658973Y472548D02*
Y466550D01*
X654974D01*
X648976Y471548D02*
X649976Y472548D01*
X651975D01*
X652975Y471548D01*
Y470549D01*
X651975Y469549D01*
X649976D01*
X648976Y468549D01*
Y467550D01*
X649976Y466550D01*
X651975D01*
X652975Y467550D01*
X646977Y471548D02*
X645977Y472548D01*
X643978D01*
X642978Y471548D01*
Y470549D01*
X644978Y468549D01*
Y467550D02*
Y466550D01*
X613021Y261499D02*
Y255501D01*
X610021D01*
X609022Y256501D01*
Y257500D01*
X610021Y258500D01*
X613021D01*
X610021D01*
X609022Y259500D01*
Y260499D01*
X610021Y261499D01*
X613021D01*
X607022D02*
X603024D01*
X605023D01*
Y255501D01*
X601024Y260499D02*
X600025Y261499D01*
X598025D01*
X597026Y260499D01*
Y259500D01*
X599025Y257500D01*
Y256501D02*
Y255501D01*
M02*
