G04*
G04 #@! TF.GenerationSoftware,Altium Limited,Altium Designer,20.2.5 (213)*
G04*
G04 Layer_Color=255*
%FSLAX25Y25*%
%MOIN*%
G70*
G04*
G04 #@! TF.SameCoordinates,7ED66F81-9B57-4200-B134-EA852FC3A939*
G04*
G04*
G04 #@! TF.FilePolarity,Positive*
G04*
G01*
G75*
%ADD16R,0.10236X0.04724*%
%ADD29R,0.05512X0.03937*%
%ADD30C,0.04724*%
%ADD31C,0.06008*%
%ADD32R,0.01850X0.02520*%
%ADD33R,0.05906X0.05906*%
%ADD34C,0.05906*%
%ADD35C,0.07795*%
%ADD36R,0.07795X0.07795*%
%ADD37R,0.05906X0.05906*%
D16*
X530500Y403839D02*
D03*
Y421161D02*
D03*
X557000Y357339D02*
D03*
Y374661D02*
D03*
X558500Y398839D02*
D03*
Y416161D02*
D03*
X557500Y436677D02*
D03*
Y454000D02*
D03*
X645500Y441339D02*
D03*
Y458661D02*
D03*
D29*
X539134Y347087D02*
D03*
X520866D02*
D03*
Y372913D02*
D03*
X539134D02*
D03*
X674634Y437587D02*
D03*
X656366D02*
D03*
Y463413D02*
D03*
X674634D02*
D03*
Y386000D02*
D03*
X656366D02*
D03*
Y411827D02*
D03*
X674634D02*
D03*
Y329000D02*
D03*
X656366D02*
D03*
Y354827D02*
D03*
X674634D02*
D03*
Y273587D02*
D03*
X656366D02*
D03*
Y299413D02*
D03*
X674634D02*
D03*
D30*
X585500Y432000D02*
D03*
Y402472D02*
D03*
X556000Y327028D02*
D03*
Y297500D02*
D03*
X585500Y371028D02*
D03*
Y341500D02*
D03*
D31*
X612500Y454500D02*
D03*
X617500Y459500D02*
D03*
X622500Y454500D02*
D03*
D32*
X606000Y378000D02*
D03*
Y397764D02*
D03*
Y368118D02*
D03*
Y358236D02*
D03*
Y338472D02*
D03*
Y348354D02*
D03*
Y387882D02*
D03*
Y407646D02*
D03*
Y417528D02*
D03*
Y427410D02*
D03*
Y328591D02*
D03*
Y318709D02*
D03*
Y308827D02*
D03*
Y298945D02*
D03*
X638402Y387882D02*
D03*
Y378000D02*
D03*
Y368118D02*
D03*
Y358236D02*
D03*
Y348354D02*
D03*
Y338472D02*
D03*
Y397764D02*
D03*
Y407646D02*
D03*
Y417528D02*
D03*
Y427410D02*
D03*
Y328591D02*
D03*
Y318709D02*
D03*
Y308827D02*
D03*
Y298945D02*
D03*
D33*
X620000Y268500D02*
D03*
D34*
Y278500D02*
D03*
X595500Y454500D02*
D03*
D35*
X589000Y311079D02*
D03*
Y301039D02*
D03*
D36*
Y291000D02*
D03*
D37*
X585500Y454500D02*
D03*
M02*
