G04*
G04 #@! TF.GenerationSoftware,Altium Limited,Altium Designer,20.2.5 (213)*
G04*
G04 Layer_Color=16711935*
%FSLAX25Y25*%
%MOIN*%
G70*
G04*
G04 #@! TF.SameCoordinates,7ED66F81-9B57-4200-B134-EA852FC3A939*
G04*
G04*
G04 #@! TF.FilePolarity,Negative*
G04*
G01*
G75*
%ADD18R,0.06312X0.04737*%
%ADD19C,0.05524*%
%ADD20C,0.06808*%
%ADD21R,0.02650X0.03320*%
%ADD22R,0.06706X0.06706*%
%ADD23C,0.06706*%
%ADD24C,0.08595*%
%ADD25R,0.08595X0.08595*%
%ADD26R,0.06706X0.06706*%
D18*
X539134Y347087D02*
D03*
X520866D02*
D03*
Y372913D02*
D03*
X539134D02*
D03*
X674634Y437587D02*
D03*
X656366D02*
D03*
Y463413D02*
D03*
X674634D02*
D03*
Y386000D02*
D03*
X656366D02*
D03*
Y411827D02*
D03*
X674634D02*
D03*
Y329000D02*
D03*
X656366D02*
D03*
Y354827D02*
D03*
X674634D02*
D03*
Y273587D02*
D03*
X656366D02*
D03*
Y299413D02*
D03*
X674634D02*
D03*
D19*
X585500Y432000D02*
D03*
Y402472D02*
D03*
X556000Y327028D02*
D03*
Y297500D02*
D03*
X585500Y371028D02*
D03*
Y341500D02*
D03*
D20*
X612500Y454500D02*
D03*
X617500Y459500D02*
D03*
X622500Y454500D02*
D03*
D21*
X606000Y378000D02*
D03*
Y397764D02*
D03*
Y368118D02*
D03*
Y358236D02*
D03*
Y338472D02*
D03*
Y348354D02*
D03*
Y387882D02*
D03*
Y407646D02*
D03*
Y417528D02*
D03*
Y427410D02*
D03*
Y328591D02*
D03*
Y318709D02*
D03*
Y308827D02*
D03*
Y298945D02*
D03*
X638402Y387882D02*
D03*
Y378000D02*
D03*
Y368118D02*
D03*
Y358236D02*
D03*
Y348354D02*
D03*
Y338472D02*
D03*
Y397764D02*
D03*
Y407646D02*
D03*
Y417528D02*
D03*
Y427410D02*
D03*
Y328591D02*
D03*
Y318709D02*
D03*
Y308827D02*
D03*
Y298945D02*
D03*
D22*
X620000Y268500D02*
D03*
D23*
Y278500D02*
D03*
X595500Y454500D02*
D03*
D24*
X589000Y311079D02*
D03*
Y301039D02*
D03*
D25*
Y291000D02*
D03*
D26*
X585500Y454500D02*
D03*
M02*
