G04*
G04 #@! TF.GenerationSoftware,Altium Limited,Altium Designer,20.2.5 (213)*
G04*
G04 Layer_Color=65535*
%FSLAX25Y25*%
%MOIN*%
G70*
G04*
G04 #@! TF.SameCoordinates,7ED66F81-9B57-4200-B134-EA852FC3A939*
G04*
G04*
G04 #@! TF.FilePolarity,Positive*
G04*
G01*
G75*
%ADD10C,0.00787*%
%ADD11C,0.00984*%
%ADD12C,0.00197*%
%ADD13C,0.00394*%
%ADD14C,0.00591*%
%ADD15C,0.01000*%
D10*
X591862Y454500D02*
G03*
X591862Y454106I0J-197D01*
G01*
D02*
G03*
X591862Y454500I0J197D01*
G01*
D02*
G03*
X591862Y454106I0J-197D01*
G01*
X670988Y407776D02*
Y417224D01*
X661539Y407776D02*
Y417224D01*
X644488Y361276D02*
Y370724D01*
X635039Y361276D02*
Y370724D01*
X581763Y283500D02*
X571763D01*
Y263500D02*
Y283500D01*
X581763Y263500D02*
X571763D01*
X581763D02*
Y283500D01*
X642988Y402776D02*
Y412224D01*
X633539Y402776D02*
Y412224D01*
X643988Y440614D02*
Y450063D01*
X634539Y440614D02*
Y450063D01*
X555988Y445276D02*
Y454724D01*
X546539Y445276D02*
Y454724D01*
X619850Y280567D02*
X607763D01*
X619850D02*
Y321512D01*
X601740D01*
X616775Y448988D02*
X595751D01*
X616775Y460012D02*
X595751D01*
Y448988D02*
Y460012D01*
X616775Y448988D02*
Y460012D01*
D11*
X587850Y436406D02*
G03*
X587850Y436406I492J0D01*
G01*
X610771Y462571D02*
G03*
X610771Y462571I492J0D01*
G01*
D12*
X675897Y369055D02*
X657629D01*
X675897Y350945D02*
Y369055D01*
Y350945D02*
X657629D01*
Y369055D01*
X540397Y459555D02*
X522129D01*
X540397Y441445D02*
Y459555D01*
Y441445D02*
X522129D01*
Y459555D01*
X540397Y407969D02*
X522129D01*
X540397Y389858D02*
Y407969D01*
Y389858D02*
X522129D01*
Y407969D01*
X540397Y350969D02*
X522129D01*
X540397Y332858D02*
Y350969D01*
Y332858D02*
X522129D01*
Y350969D01*
X540397Y295555D02*
X522129D01*
X540397Y277445D02*
Y295555D01*
Y277445D02*
X522129D01*
Y295555D01*
D13*
X619137Y397551D02*
X603389D01*
Y436921D01*
X619137D02*
X603389D01*
X619137Y397551D02*
Y436921D01*
X588318Y448201D02*
X570208D01*
X588318D02*
X570208D01*
X648637Y292579D02*
X632889D01*
Y331949D01*
X648637D02*
X632889D01*
X648637Y292579D02*
Y331949D01*
X619137Y336579D02*
X603389D01*
Y375949D01*
X619137D02*
X603389D01*
X619137Y336579D02*
Y375949D01*
D14*
X590311Y430500D02*
Y432862D01*
X558814D01*
Y431287D02*
Y432862D01*
Y430500D02*
Y431287D01*
X558926Y293098D02*
Y295461D01*
X590422Y293098D02*
X558926D01*
X590422D02*
Y294673D01*
Y295461D01*
X576526Y258000D02*
Y261017D01*
X578035Y259509D02*
X575018D01*
D15*
X679613Y379250D02*
Y385248D01*
X676614D01*
X675615Y384248D01*
Y382249D01*
X676614Y381249D01*
X679613D01*
X677614D02*
X675615Y379250D01*
X670616D02*
X672616D01*
X673615Y380250D01*
Y382249D01*
X672616Y383249D01*
X670616D01*
X669617Y382249D01*
Y381249D01*
X673615D01*
X667617Y379250D02*
X664618D01*
X663619Y380250D01*
X664618Y381249D01*
X666617D01*
X667617Y382249D01*
X666617Y383249D01*
X663619D01*
X658620Y379250D02*
X660619D01*
X661619Y380250D01*
Y382249D01*
X660619Y383249D01*
X658620D01*
X657620Y382249D01*
Y381249D01*
X661619D01*
X654621Y384248D02*
Y383249D01*
X655621D01*
X653622D01*
X654621D01*
Y380250D01*
X653622Y379250D01*
X671013Y427150D02*
Y433148D01*
X668014D01*
X667015Y432148D01*
Y430149D01*
X668014Y429149D01*
X671013D01*
X669014D02*
X667015Y427150D01*
X661017Y433148D02*
X665015D01*
Y430149D01*
X663016Y431149D01*
X662016D01*
X661017Y430149D01*
Y428150D01*
X662016Y427150D01*
X664016D01*
X665015Y428150D01*
X644463Y380600D02*
Y386598D01*
X641464D01*
X640465Y385598D01*
Y383599D01*
X641464Y382599D01*
X644463D01*
X642464D02*
X640465Y380600D01*
X635466D02*
Y386598D01*
X638465Y383599D01*
X634467D01*
X617263Y444972D02*
X618263Y445971D01*
X620262D01*
X621262Y444972D01*
Y440973D01*
X620262Y439973D01*
X618263D01*
X617263Y440973D01*
X615264Y439973D02*
X613265D01*
X614264D01*
Y445971D01*
X615264Y444972D01*
X591215Y470650D02*
Y474648D01*
X592214Y475648D01*
X594214D01*
X595213Y474648D01*
Y470650D01*
X594214Y469650D01*
X592214D01*
X593214Y471649D02*
X591215Y469650D01*
X592214D02*
X591215Y470650D01*
X589215Y474648D02*
X588216Y475648D01*
X586216D01*
X585217Y474648D01*
Y473649D01*
X587216Y471649D01*
Y470650D02*
Y469650D01*
X647815Y344048D02*
X648814Y345048D01*
X650814D01*
X651813Y344048D01*
Y340050D01*
X650814Y339050D01*
X648814D01*
X647815Y340050D01*
X645815Y344048D02*
X644816Y345048D01*
X642816D01*
X641817Y344048D01*
Y343049D01*
X643816Y341049D01*
Y340050D02*
Y339050D01*
X644013Y459989D02*
Y465987D01*
X641014D01*
X640015Y464987D01*
Y462988D01*
X641014Y461988D01*
X644013D01*
X642014D02*
X640015Y459989D01*
X638015Y464987D02*
X637016Y465987D01*
X635016D01*
X634017Y464987D01*
Y463987D01*
X635016Y462988D01*
X636016D01*
X635016D01*
X634017Y461988D01*
Y460988D01*
X635016Y459989D01*
X637016D01*
X638015Y460988D01*
X642262Y422501D02*
Y428499D01*
X639263D01*
X638263Y427499D01*
Y425500D01*
X639263Y424500D01*
X642262D01*
X640262D02*
X638263Y422501D01*
X632265D02*
X636264D01*
X632265Y426500D01*
Y427499D01*
X633265Y428499D01*
X635264D01*
X636264Y427499D01*
X556013Y464650D02*
Y470648D01*
X553014D01*
X552015Y469648D01*
Y467649D01*
X553014Y466649D01*
X556013D01*
X554014D02*
X552015Y464650D01*
X550015D02*
X548016D01*
X549016D01*
Y470648D01*
X550015Y469648D01*
X593313Y446425D02*
Y441427D01*
X592313Y440427D01*
X590313D01*
X589314Y441427D01*
Y446425D01*
X587315Y445426D02*
X586315Y446425D01*
X584315D01*
X583316Y445426D01*
Y444426D01*
X585315Y442426D01*
Y441427D02*
Y440427D01*
X544113Y420163D02*
X541114D01*
X540115Y421163D01*
X541114Y422163D01*
X543114D01*
X544113Y423162D01*
X543114Y424162D01*
X540115D01*
X537116Y425162D02*
Y424162D01*
X538115D01*
X536116D01*
X537116D01*
Y421163D01*
X536116Y420163D01*
X532117D02*
X530118D01*
X529118Y421163D01*
Y423162D01*
X530118Y424162D01*
X532117D01*
X533117Y423162D01*
Y421163D01*
X532117Y420163D01*
X527119Y418164D02*
Y424162D01*
X524120D01*
X523120Y423162D01*
Y421163D01*
X524120Y420163D01*
X527119D01*
X521121Y425162D02*
X520121Y426161D01*
X518122D01*
X517122Y425162D01*
Y424162D01*
X519121Y422163D01*
Y421163D02*
Y420163D01*
X544113Y305751D02*
Y311749D01*
X541114D01*
X540115Y310749D01*
Y308750D01*
X541114Y307750D01*
X544113D01*
X538115Y311749D02*
Y307750D01*
Y309749D01*
X537116Y310749D01*
X536116Y311749D01*
X535116D01*
X529118Y307750D02*
X531117D01*
X532117Y308750D01*
Y310749D01*
X531117Y311749D01*
X529118D01*
X528119Y310749D01*
Y309749D01*
X532117D01*
X526119Y312748D02*
X525119Y313748D01*
X523120D01*
X522120Y312748D01*
Y311749D01*
X524120Y309749D01*
Y308750D02*
Y307750D01*
X544113Y469751D02*
Y475749D01*
X541114D01*
X540115Y474749D01*
Y472750D01*
X541114Y471750D01*
X544113D01*
X538115D02*
X536116D01*
X537116D01*
Y477748D01*
X538115D01*
X532117Y475749D02*
X530118D01*
X529118Y474749D01*
Y471750D01*
X532117D01*
X533117Y472750D01*
X532117Y473749D01*
X529118D01*
X527119Y475749D02*
Y472750D01*
X526119Y471750D01*
X523120D01*
Y470750D01*
X524120Y469751D01*
X525119D01*
X523120Y471750D02*
Y475749D01*
X521121Y476748D02*
X520121Y477748D01*
X518122D01*
X517122Y476748D01*
Y475749D01*
X519121Y473749D01*
Y472750D02*
Y471750D01*
X544113Y361163D02*
Y365162D01*
X541114D01*
X540115Y364162D01*
Y361163D01*
X535116D02*
X537116D01*
X538115Y362163D01*
Y364162D01*
X537116Y365162D01*
X535116D01*
X534117Y364162D01*
Y363163D01*
X538115D01*
X532117Y365162D02*
X528119Y361163D01*
X530118Y363163D01*
X528119Y365162D01*
X532117Y361163D01*
X525119Y366162D02*
Y365162D01*
X526119D01*
X524120D01*
X525119D01*
Y362163D01*
X524120Y361163D01*
X521121Y366162D02*
X520121Y367161D01*
X518122D01*
X517122Y366162D01*
Y365162D01*
X519121Y363163D01*
Y362163D02*
Y361163D01*
X619913Y331548D02*
X617914D01*
X618914D01*
Y325550D01*
X619913D01*
X617914D01*
X610916Y330548D02*
X611916Y331548D01*
X613915D01*
X614915Y330548D01*
Y326550D01*
X613915Y325550D01*
X611916D01*
X610916Y326550D01*
X608917Y330548D02*
X607917Y331548D01*
X605918D01*
X604918Y330548D01*
Y329549D01*
X606917Y327549D01*
Y326550D02*
Y325550D01*
X618315Y388048D02*
X619314Y389048D01*
X621314D01*
X622313Y388048D01*
Y384050D01*
X621314Y383050D01*
X619314D01*
X618315Y384050D01*
X612317Y383050D02*
X616315D01*
X612317Y387049D01*
Y388048D01*
X613316Y389048D01*
X615316D01*
X616315Y388048D01*
X616213Y472548D02*
Y466550D01*
X612215D01*
X606217Y471548D02*
X607216Y472548D01*
X609216D01*
X610215Y471548D01*
Y470549D01*
X609216Y469549D01*
X607216D01*
X606217Y468549D01*
Y467550D01*
X607216Y466550D01*
X609216D01*
X610215Y467550D01*
X604217Y471548D02*
X603218Y472548D01*
X601218D01*
X600218Y471548D01*
Y470549D01*
X602218Y468549D01*
Y467550D02*
Y466550D01*
X570261Y261499D02*
Y255501D01*
X567262D01*
X566262Y256501D01*
Y257500D01*
X567262Y258500D01*
X570261D01*
X567262D01*
X566262Y259500D01*
Y260499D01*
X567262Y261499D01*
X570261D01*
X564263D02*
X560264D01*
X562263D01*
Y255501D01*
X558265Y260499D02*
X557265Y261499D01*
X555266D01*
X554266Y260499D01*
Y259500D01*
X556265Y257500D01*
Y256501D02*
Y255501D01*
M02*
