G04*
G04 #@! TF.GenerationSoftware,Altium Limited,Altium Designer,20.2.5 (213)*
G04*
G04 Layer_Physical_Order=1*
G04 Layer_Color=255*
%FSLAX25Y25*%
%MOIN*%
G70*
G04*
G04 #@! TF.SameCoordinates,7ED66F81-9B57-4200-B134-EA852FC3A939*
G04*
G04*
G04 #@! TF.FilePolarity,Positive*
G04*
G01*
G75*
%ADD16R,0.10236X0.04724*%
%ADD27C,0.02000*%
%ADD28C,0.01500*%
%ADD29R,0.05512X0.03937*%
%ADD30C,0.04724*%
%ADD31C,0.06008*%
%ADD32R,0.01850X0.02520*%
%ADD33R,0.05906X0.05906*%
%ADD34C,0.05906*%
%ADD35C,0.07795*%
%ADD36R,0.07795X0.07795*%
%ADD37R,0.05906X0.05906*%
D16*
X666263Y403839D02*
D03*
Y421161D02*
D03*
X639763Y357339D02*
D03*
Y374661D02*
D03*
X638263Y398839D02*
D03*
Y416161D02*
D03*
X639263Y436677D02*
D03*
Y454000D02*
D03*
X551263Y441339D02*
D03*
Y458661D02*
D03*
D27*
X661763Y312331D02*
Y333000D01*
Y312331D02*
X642570Y293138D01*
X634921D02*
X616980Y311079D01*
X607763D01*
X642570Y293138D02*
X634921D01*
X666263Y337500D02*
X661763Y333000D01*
X666263Y337500D02*
Y403839D01*
X639263Y446986D02*
Y454000D01*
Y446986D02*
X606901Y414624D01*
Y384441D02*
Y414624D01*
X601721Y454957D02*
Y455309D01*
Y454957D02*
X596259Y449496D01*
X579267D01*
X574263Y454500D01*
X624952Y416161D02*
X611263Y402472D01*
Y402028D02*
Y402472D01*
X606901Y384441D02*
X590763Y368303D01*
X638263Y416161D02*
X624952D01*
X590763Y368118D02*
Y368303D01*
X522129Y273587D02*
Y329000D01*
X603370Y371028D02*
X590763Y358421D01*
X522129Y386000D02*
Y437587D01*
X590763Y358236D02*
X564396D01*
X611263Y371028D02*
X603370D01*
X590763Y358236D02*
Y358421D01*
X576763Y278500D02*
X527830D01*
X606472Y301039D02*
X583932Y278500D01*
X556391Y352417D02*
X554332Y350358D01*
X536606D02*
X532137Y354827D01*
X554332Y350358D02*
X536606D01*
X607763Y311079D02*
Y337417D01*
X611263Y340917D02*
X607763Y337417D01*
X611263Y340917D02*
Y341500D01*
X583932Y278500D02*
X576763D01*
X607763Y301039D02*
X606472D01*
X585263Y268500D02*
X576763D01*
X607763Y291000D02*
X585263Y268500D01*
X564396Y358236D02*
X558577Y352417D01*
X556391D01*
X532137Y354827D02*
X522129D01*
Y437587D02*
Y463413D01*
Y354827D02*
Y386000D01*
Y329000D02*
Y354827D01*
X527830Y278500D02*
X522917Y273587D01*
X522129D01*
D28*
X632895Y305368D02*
Y380632D01*
X640763Y297500D02*
X632895Y305368D01*
X645131Y392868D02*
X632895Y380632D01*
X669019Y421161D02*
X666263D01*
X670631Y419549D02*
X669019Y421161D01*
X670631Y409426D02*
Y419549D01*
X675897Y404160D02*
X670631Y409426D01*
X675897Y372913D02*
Y404160D01*
X667875Y419549D02*
X666263Y421161D01*
X642519Y374661D02*
X639763D01*
X645131Y392868D02*
Y419248D01*
X648263Y380405D02*
X642519Y374661D01*
X648263Y380405D02*
Y398883D01*
X639263Y425117D02*
Y436677D01*
X653263Y403883D02*
X648263Y398883D01*
X645131Y419248D02*
X639263Y425117D01*
X653263Y403883D02*
Y453491D01*
X646131Y457087D02*
X645106Y458112D01*
X624391Y452000D02*
X622189Y449797D01*
X653263Y453491D02*
X646142Y460612D01*
X646131Y448938D02*
Y457087D01*
X626273Y454500D02*
X611263D01*
X632385Y460612D02*
X626273Y454500D01*
X633420Y458112D02*
X627308Y452000D01*
X645106Y458112D02*
X633420D01*
X646142Y460612D02*
X632385D01*
X627308Y452000D02*
X624391D01*
X643631Y438289D02*
Y446438D01*
X646131Y448938D02*
X643631Y446438D01*
Y438289D02*
X642019Y436677D01*
X605966Y451417D02*
Y456448D01*
X607586Y449797D02*
X605966Y451417D01*
X622189Y449797D02*
X607586D01*
X605966Y456448D02*
X603211Y459203D01*
X640763Y356339D02*
X639763Y357339D01*
X640763Y327028D02*
Y356339D01*
X638263Y398839D02*
X636651Y397226D01*
X589103Y364805D02*
X587785Y366123D01*
X593742Y376005D02*
X590796Y373059D01*
X581073Y440968D02*
X569509Y452531D01*
X636651Y397226D02*
X625679D01*
X587785Y366123D02*
Y370113D01*
X593742Y376005D02*
Y429404D01*
X569509Y452531D02*
Y456469D01*
X625679Y397226D02*
X593258Y364805D01*
X590731Y373059D02*
X587785Y370113D01*
X593742Y429404D02*
X582178Y440968D01*
X572540Y459500D02*
X569509Y456469D01*
X593258Y364805D02*
X589103D01*
X590796Y373059D02*
X590731D01*
X582178Y440968D02*
X581073D01*
X579263Y459500D02*
X572540D01*
X603211Y459203D02*
X588966D01*
X642019Y436677D02*
X639263D01*
X588966Y459203D02*
X584263Y454500D01*
X587588Y407646D02*
X555631Y439602D01*
Y439726D02*
X554019Y441339D01*
X590763Y407646D02*
X587588D01*
X555631Y439602D02*
Y439726D01*
X540397Y437587D02*
Y463413D01*
X572540Y459500D02*
X552102D01*
X551263Y458661D01*
X554019Y441339D02*
X551263D01*
X590763Y387882D02*
X575448D01*
X571635Y384069D01*
X590763Y397764D02*
X583806D01*
X560229Y421341D01*
X557431D01*
X541185Y437587D01*
X571635Y384069D02*
X543116D01*
X541185Y386000D01*
X590763Y318709D02*
X575448D01*
X571635Y314896D01*
X555289D01*
X541185Y329000D01*
X540397D01*
X590763Y308827D02*
X564042D01*
X559945Y304729D01*
X546500D01*
X541185Y299413D01*
X540397D01*
Y386000D02*
Y411827D01*
X541185Y386000D02*
X540397D01*
X541185Y437587D02*
X540397D01*
D29*
X657629Y347087D02*
D03*
X675897D02*
D03*
Y372913D02*
D03*
X657629D02*
D03*
X522129Y437587D02*
D03*
X540397D02*
D03*
Y463413D02*
D03*
X522129D02*
D03*
Y386000D02*
D03*
X540397D02*
D03*
Y411827D02*
D03*
X522129D02*
D03*
Y329000D02*
D03*
X540397D02*
D03*
Y354827D02*
D03*
X522129D02*
D03*
Y273587D02*
D03*
X540397D02*
D03*
Y299413D02*
D03*
X522129D02*
D03*
D30*
X611263Y432000D02*
D03*
Y402472D02*
D03*
X640763Y327028D02*
D03*
Y297500D02*
D03*
X611263Y371028D02*
D03*
Y341500D02*
D03*
D31*
X584263Y454500D02*
D03*
X579263Y459500D02*
D03*
X574263Y454500D02*
D03*
D32*
X590763Y378000D02*
D03*
Y397764D02*
D03*
Y368118D02*
D03*
Y358236D02*
D03*
Y338472D02*
D03*
Y348354D02*
D03*
Y387882D02*
D03*
Y407646D02*
D03*
Y417528D02*
D03*
Y427410D02*
D03*
Y328591D02*
D03*
Y318709D02*
D03*
Y308827D02*
D03*
Y298945D02*
D03*
X558362Y387882D02*
D03*
Y378000D02*
D03*
Y368118D02*
D03*
Y358236D02*
D03*
Y348354D02*
D03*
Y338472D02*
D03*
Y397764D02*
D03*
Y407646D02*
D03*
Y417528D02*
D03*
Y427410D02*
D03*
Y328591D02*
D03*
Y318709D02*
D03*
Y308827D02*
D03*
Y298945D02*
D03*
D33*
X576763Y268500D02*
D03*
D34*
Y278500D02*
D03*
X601263Y454500D02*
D03*
D35*
X607763Y311079D02*
D03*
Y301039D02*
D03*
D36*
Y291000D02*
D03*
D37*
X611263Y454500D02*
D03*
M02*
