G04*
G04 #@! TF.GenerationSoftware,Altium Limited,Altium Designer,20.2.5 (213)*
G04*
G04 Layer_Color=128*
%FSLAX25Y25*%
%MOIN*%
G70*
G04*
G04 #@! TF.SameCoordinates,7ED66F81-9B57-4200-B134-EA852FC3A939*
G04*
G04*
G04 #@! TF.FilePolarity,Positive*
G04*
G01*
G75*
%ADD38C,0.00200*%
D38*
X537756Y347087D02*
X540512D01*
X539134Y345709D02*
Y348465D01*
X519488Y347087D02*
X522244D01*
X520866Y345709D02*
Y348465D01*
X519488Y372913D02*
X522244D01*
X520866Y371535D02*
Y374291D01*
X537756Y372913D02*
X540512D01*
X539134Y371535D02*
Y374291D01*
X584024Y432000D02*
X586976D01*
X585500Y430524D02*
Y433476D01*
X584024Y402472D02*
X586976D01*
X585500Y400996D02*
Y403949D01*
X610569Y454500D02*
X614431D01*
X612500Y452569D02*
Y456431D01*
X615569Y459500D02*
X619431D01*
X617500Y457569D02*
Y461431D01*
X620569Y454500D02*
X624431D01*
X622500Y452569D02*
Y456431D01*
X554524Y327028D02*
X557476D01*
X556000Y325551D02*
Y328504D01*
X554524Y297500D02*
X557476D01*
X556000Y296024D02*
Y298976D01*
X604937Y378000D02*
X607063D01*
X606000Y376937D02*
Y379063D01*
X604937Y397764D02*
X607063D01*
X606000Y396701D02*
Y398827D01*
X604937Y368118D02*
X607063D01*
X606000Y367055D02*
Y369181D01*
X604937Y358236D02*
X607063D01*
X606000Y357173D02*
Y359299D01*
X604937Y338472D02*
X607063D01*
X606000Y337409D02*
Y339535D01*
X604937Y348354D02*
X607063D01*
X606000Y347291D02*
Y349417D01*
X604937Y387882D02*
X607063D01*
X606000Y386819D02*
Y388945D01*
X604937Y407646D02*
X607063D01*
X606000Y406583D02*
Y408709D01*
X604937Y417528D02*
X607063D01*
X606000Y416465D02*
Y418590D01*
X604937Y427410D02*
X607063D01*
X606000Y426346D02*
Y428472D01*
X604937Y328591D02*
X607063D01*
X606000Y327528D02*
Y329654D01*
X604937Y318709D02*
X607063D01*
X606000Y317646D02*
Y319772D01*
X604937Y308827D02*
X607063D01*
X606000Y307764D02*
Y309890D01*
X604937Y298945D02*
X607063D01*
X606000Y297882D02*
Y300008D01*
X637339Y387882D02*
X639465D01*
X638402Y386819D02*
Y388945D01*
X637339Y378000D02*
X639465D01*
X638402Y376937D02*
Y379063D01*
X637339Y368118D02*
X639465D01*
X638402Y367055D02*
Y369181D01*
X637339Y358236D02*
X639465D01*
X638402Y357173D02*
Y359299D01*
X637339Y348354D02*
X639465D01*
X638402Y347291D02*
Y349417D01*
X637339Y338472D02*
X639465D01*
X638402Y337409D02*
Y339535D01*
X637339Y397764D02*
X639465D01*
X638402Y396701D02*
Y398827D01*
X637339Y407646D02*
X639465D01*
X638402Y406583D02*
Y408709D01*
X637339Y417528D02*
X639465D01*
X638402Y416465D02*
Y418590D01*
X637339Y427410D02*
X639465D01*
X638402Y426346D02*
Y428472D01*
X637339Y328591D02*
X639465D01*
X638402Y327528D02*
Y329654D01*
X637339Y318709D02*
X639465D01*
X638402Y317646D02*
Y319772D01*
X637339Y308827D02*
X639465D01*
X638402Y307764D02*
Y309890D01*
X637339Y298945D02*
X639465D01*
X638402Y297882D02*
Y300008D01*
X618228Y268500D02*
X621772D01*
X620000Y266728D02*
Y270272D01*
X618228Y278500D02*
X621772D01*
X620000Y276728D02*
Y280272D01*
X673256Y437587D02*
X676012D01*
X674634Y436209D02*
Y438965D01*
X654988Y437587D02*
X657744D01*
X656366Y436209D02*
Y438965D01*
X654988Y463413D02*
X657744D01*
X656366Y462035D02*
Y464791D01*
X673256Y463413D02*
X676012D01*
X674634Y462035D02*
Y464791D01*
X586402Y311079D02*
X591598D01*
X589000Y308480D02*
Y313677D01*
X586402Y301039D02*
X591598D01*
X589000Y298441D02*
Y303638D01*
X586402Y291000D02*
X591598D01*
X589000Y288402D02*
Y293598D01*
X673256Y386000D02*
X676012D01*
X674634Y384622D02*
Y387378D01*
X654988Y386000D02*
X657744D01*
X656366Y384622D02*
Y387378D01*
X654988Y411827D02*
X657744D01*
X656366Y410449D02*
Y413205D01*
X673256Y411827D02*
X676012D01*
X674634Y410449D02*
Y413205D01*
X584024Y371028D02*
X586976D01*
X585500Y369551D02*
Y372504D01*
X584024Y341500D02*
X586976D01*
X585500Y340024D02*
Y342976D01*
X673256Y329000D02*
X676012D01*
X674634Y327622D02*
Y330378D01*
X654988Y329000D02*
X657744D01*
X656366Y327622D02*
Y330378D01*
X654988Y354827D02*
X657744D01*
X656366Y353449D02*
Y356205D01*
X673256Y354827D02*
X676012D01*
X674634Y353449D02*
Y356205D01*
X673256Y273587D02*
X676012D01*
X674634Y272209D02*
Y274965D01*
X654988Y273587D02*
X657744D01*
X656366Y272209D02*
Y274965D01*
X654988Y299413D02*
X657744D01*
X656366Y298035D02*
Y300791D01*
X673256Y299413D02*
X676012D01*
X674634Y298035D02*
Y300791D01*
X583728Y454500D02*
X587272D01*
X585500Y452728D02*
Y456272D01*
X593728Y454500D02*
X597272D01*
X595500Y452728D02*
Y456272D01*
M02*
