G04*
G04 #@! TF.GenerationSoftware,Altium Limited,Altium Designer,20.2.5 (213)*
G04*
G04 Layer_Color=16711935*
%FSLAX25Y25*%
%MOIN*%
G70*
G04*
G04 #@! TF.SameCoordinates,7ED66F81-9B57-4200-B134-EA852FC3A939*
G04*
G04*
G04 #@! TF.FilePolarity,Positive*
G04*
G01*
G75*
%ADD10C,0.00787*%
%ADD13C,0.00394*%
D10*
X619137Y397551D02*
X603389D01*
Y436921D01*
X619137D02*
X603389D01*
X619137Y397551D02*
Y436921D01*
X588318Y448201D02*
X570208D01*
Y462374D01*
X588318D02*
X570208D01*
X588318Y448201D02*
Y462374D01*
X648637Y292579D02*
X632889D01*
Y331949D01*
X648637D02*
X632889D01*
X648637Y292579D02*
Y331949D01*
X619137Y336579D02*
X603389D01*
Y375949D01*
X619137D02*
X603389D01*
X619137Y336579D02*
Y375949D01*
D13*
X671480Y402362D02*
X661047D01*
X671480Y422638D02*
X661047D01*
X671480Y402362D02*
Y422638D01*
X661047Y402362D02*
Y422638D01*
X644980Y355862D02*
X634547D01*
X644980Y376138D02*
X634547D01*
X644980Y355862D02*
Y376138D01*
X634547Y355862D02*
Y376138D01*
X643480Y397362D02*
X633047D01*
X643480Y417638D02*
X633047D01*
X643480Y397362D02*
Y417638D01*
X633047Y397362D02*
Y417638D01*
X644480Y435201D02*
X634047D01*
X644480Y455476D02*
X634047D01*
X644480Y435201D02*
Y455476D01*
X634047Y435201D02*
Y455476D01*
X556480Y439862D02*
X546047D01*
X556480Y460138D02*
X546047D01*
X556480Y439862D02*
Y460138D01*
X546047Y439862D02*
Y460138D01*
X619850Y285587D02*
X614830Y280567D01*
X619850D02*
X601740D01*
Y321512D01*
X619850D02*
X601740D01*
X619850Y280567D02*
Y321512D01*
M02*
