G04*
G04 #@! TF.GenerationSoftware,Altium Limited,Altium Designer,20.2.5 (213)*
G04*
G04 Layer_Physical_Order=2*
G04 Layer_Color=16711680*
%FSLAX25Y25*%
%MOIN*%
G70*
G04*
G04 #@! TF.SameCoordinates,7ED66F81-9B57-4200-B134-EA852FC3A939*
G04*
G04*
G04 #@! TF.FilePolarity,Positive*
G04*
G01*
G75*
%ADD27C,0.02000*%
%ADD28C,0.01500*%
%ADD29R,0.05512X0.03937*%
%ADD30C,0.04724*%
%ADD31C,0.06008*%
%ADD32R,0.01850X0.02520*%
%ADD33R,0.05906X0.05906*%
%ADD34C,0.05906*%
%ADD35C,0.07795*%
%ADD36R,0.07795X0.07795*%
%ADD37R,0.05906X0.05906*%
D27*
X657629Y347087D02*
Y372913D01*
X611013Y371278D02*
Y402750D01*
X657629Y372913D02*
X613886D01*
X612001Y371028D01*
X611263D01*
X610763Y418819D02*
Y432528D01*
Y418819D02*
X605901Y413957D01*
Y339986D02*
Y413957D01*
X579267Y449496D02*
X574263Y454500D01*
X588697Y449496D02*
X579267D01*
X593701Y454500D02*
X588697Y449496D01*
X601263Y454500D02*
X593701D01*
X611013Y402750D02*
X610763Y403000D01*
X611263Y371028D02*
X611013Y371278D01*
X532275Y386000D02*
X522129D01*
X550157Y368118D02*
X532275Y386000D01*
X558362Y368118D02*
X550157D01*
X614161Y331726D02*
X605901Y339986D01*
X590763Y363858D02*
X589204Y362299D01*
X587035Y336167D02*
Y360542D01*
X590763Y363858D02*
Y365988D01*
X588792Y362299D02*
X587035Y360542D01*
X573130Y348354D02*
X558362D01*
X589204Y362299D02*
X588792D01*
X590763Y365988D02*
X573130Y348354D01*
X590548Y332653D02*
X587035Y336167D01*
X574263Y454500D02*
X531830D01*
X522917Y463413D01*
X522129D01*
X599694Y325693D02*
X592734Y332653D01*
X599694Y319148D02*
Y325693D01*
X607763Y311079D02*
X599694Y319148D01*
X592734Y332653D02*
X590548D01*
X614161Y297398D02*
Y331726D01*
Y297398D02*
X607763Y291000D01*
Y301039D02*
X606472D01*
D28*
X675110Y372913D02*
X673891Y374132D01*
X612967Y436112D02*
X606304D01*
X597601Y427410D01*
X673891Y375188D02*
X612967Y436112D01*
X673891Y374132D02*
Y375188D01*
X597601Y427410D02*
X590763D01*
X675897Y372913D02*
X675110D01*
X675897Y347087D02*
Y372913D01*
X540397Y273587D02*
Y299413D01*
Y329000D02*
Y354827D01*
D29*
X657629Y347087D02*
D03*
X675897D02*
D03*
Y372913D02*
D03*
X657629D02*
D03*
X522129Y437587D02*
D03*
X540397D02*
D03*
Y463413D02*
D03*
X522129D02*
D03*
Y386000D02*
D03*
X540397D02*
D03*
Y411827D02*
D03*
X522129D02*
D03*
Y329000D02*
D03*
X540397D02*
D03*
Y354827D02*
D03*
X522129D02*
D03*
Y273587D02*
D03*
X540397D02*
D03*
Y299413D02*
D03*
X522129D02*
D03*
D30*
X611263Y432000D02*
D03*
Y402472D02*
D03*
X640763Y327028D02*
D03*
Y297500D02*
D03*
X611263Y371028D02*
D03*
Y341500D02*
D03*
D31*
X584263Y454500D02*
D03*
X579263Y459500D02*
D03*
X574263Y454500D02*
D03*
D32*
X590763Y378000D02*
D03*
Y397764D02*
D03*
Y368118D02*
D03*
Y358236D02*
D03*
Y338472D02*
D03*
Y348354D02*
D03*
Y387882D02*
D03*
Y407646D02*
D03*
Y417528D02*
D03*
Y427410D02*
D03*
Y328591D02*
D03*
Y318709D02*
D03*
Y308827D02*
D03*
Y298945D02*
D03*
X558362Y387882D02*
D03*
Y378000D02*
D03*
Y368118D02*
D03*
Y358236D02*
D03*
Y348354D02*
D03*
Y338472D02*
D03*
Y397764D02*
D03*
Y407646D02*
D03*
Y417528D02*
D03*
Y427410D02*
D03*
Y328591D02*
D03*
Y318709D02*
D03*
Y308827D02*
D03*
Y298945D02*
D03*
D33*
X576763Y268500D02*
D03*
D34*
Y278500D02*
D03*
X601263Y454500D02*
D03*
D35*
X607763Y311079D02*
D03*
Y301039D02*
D03*
D36*
Y291000D02*
D03*
D37*
X611263Y454500D02*
D03*
M02*
