G04*
G04 #@! TF.GenerationSoftware,Altium Limited,Altium Designer,20.2.5 (213)*
G04*
G04 Layer_Color=8388736*
%FSLAX25Y25*%
%MOIN*%
G70*
G04*
G04 #@! TF.SameCoordinates,7ED66F81-9B57-4200-B134-EA852FC3A939*
G04*
G04*
G04 #@! TF.FilePolarity,Positive*
G04*
G01*
G75*
%ADD13C,0.00394*%
%ADD15C,0.01000*%
G36*
X579698Y431361D02*
X588940Y422119D01*
X589129D01*
Y431361D01*
X589117Y431374D01*
X579698Y431361D01*
D02*
G37*
D13*
X675622Y348189D02*
Y371811D01*
Y348189D02*
X657905D01*
X657794Y348220D02*
Y371842D01*
X675510D02*
X657794D01*
X540122Y438689D02*
Y462311D01*
Y438689D02*
X522405D01*
X522294Y438720D02*
Y462342D01*
X540010D02*
X522294D01*
X540122Y387102D02*
Y410724D01*
Y387102D02*
X522405D01*
X522294Y387133D02*
Y410755D01*
X540010D02*
X522294D01*
X540122Y330102D02*
Y353724D01*
Y330102D02*
X522405D01*
X522294Y330133D02*
Y353755D01*
X540010D02*
X522294D01*
X540122Y274689D02*
Y298311D01*
Y274689D02*
X522405D01*
X522294Y274720D02*
Y298342D01*
X540010D02*
X522294D01*
D15*
X589129Y295067D02*
Y431287D01*
X560045Y295067D02*
Y431287D01*
X589129D02*
X560045D01*
X589129Y295067D02*
X560045D01*
M02*
